<?xml version="1.0" standalone="no"?>
<!DOCTYPE svg PUBLIC "-//W3C//DTD SVG 20010904//EN"
 "http://www.w3.org/TR/2001/REC-SVG-20010904/DTD/svg10.dtd">
<svg version="1.0" xmlns="http://www.w3.org/2000/svg"
 width="460.000000pt" height="460.000000pt" viewBox="0 0 460.000000 460.000000"
 preserveAspectRatio="xMidYMid meet">
<g transform="translate(0.000000,460.000000) scale(0.100000,-0.100000)"
fill="#000000" stroke="none">
<path d="M1830 4159 c-769 -99 -1413 -650 -1619 -1384 -38 -137 -59 -254 -72
-415 -10 -119 -4 -300 10 -300 7 1 101 153 114 185 5 11 17 85 28 165 38 287
80 432 181 632 201 396 530 698 935 859 212 84 462 124 723 116 265 -9 490
-66 722 -182 291 -145 558 -391 727 -670 128 -211 228 -511 248 -741 5 -62 3
-74 -9 -74 -26 0 -180 103 -355 236 -233 178 -368 266 -508 334 -245 118 -337
140 -589 140 -162 0 -201 -3 -265 -21 -144 -40 -312 -132 -436 -237 -58 -50
-185 -188 -185 -202 0 -4 30 -10 68 -14 194 -20 360 -66 767 -216 304 -111
436 -152 601 -184 157 -30 190 -41 175 -60 -18 -22 -92 -39 -164 -38 -122 2
-279 49 -615 183 -383 153 -529 197 -724 218 -54 6 -104 11 -113 11 -11 0 -15
11 -15 41 l0 42 -114 -7 c-241 -14 -499 -83 -656 -173 -178 -103 -327 -282
-393 -471 -28 -80 -30 -98 -31 -222 0 -121 3 -143 28 -215 82 -237 312 -550
545 -737 233 -188 544 -337 841 -403 98 -22 508 -32 641 -16 215 25 490 120
694 239 395 230 664 546 855 1005 32 77 33 78 134 149 175 124 317 234 425
330 l104 93 -129 7 c-130 7 -237 29 -365 77 l-56 21 -6 128 c-11 275 -122 617
-284 874 -274 436 -690 732 -1211 862 -164 41 -476 58 -652 35z m-349 -1741
c49 -165 149 -318 315 -478 227 -220 451 -358 735 -454 174 -59 273 -71 529
-63 217 6 282 19 499 97 63 22 121 39 129 38 11 -2 0 -31 -43 -113 -202 -388
-504 -666 -908 -839 -464 -198 -1021 -177 -1475 56 -341 175 -617 448 -788
778 l-39 75 0 165 0 165 37 77 c97 203 227 327 462 439 150 71 349 124 478
128 l47 1 22 -72z"/>
</g>
</svg>